<svg width="160" height="47" viewBox="0 0 160 47" fill="none" xmlns="http://www.w3.org/2000/svg">
<rect y="0.5" width="160" height="46" rx="23" fill="#24272E"/>
<path d="M34.1186 30.5V20.3182H37.7479C38.5367 20.3182 39.1913 20.4541 39.7116 20.7259C40.2353 20.9976 40.6264 21.3738 40.8849 21.8544C41.1435 22.3317 41.2727 22.8835 41.2727 23.5099C41.2727 24.133 41.1418 24.6816 40.88 25.1555C40.6214 25.6262 40.2304 25.9924 39.7067 26.2543C39.1863 26.5161 38.5317 26.647 37.7429 26.647H34.9936V25.3246H37.6037C38.1009 25.3246 38.5052 25.2533 38.8168 25.1108C39.1316 24.9683 39.362 24.7611 39.5078 24.4893C39.6536 24.2176 39.7266 23.8911 39.7266 23.5099C39.7266 23.1255 39.652 22.7924 39.5028 22.5107C39.357 22.2289 39.1267 22.0135 38.8118 21.8643C38.5002 21.7119 38.0909 21.6357 37.5838 21.6357H35.6548V30.5H34.1186ZM39.1449 25.9062L41.6605 30.5H39.9105L37.4446 25.9062H39.1449ZM46.2182 30.6541C45.4658 30.6541 44.8179 30.4934 44.2743 30.1719C43.7341 29.8471 43.3165 29.3913 43.0215 28.8047C42.7298 28.2147 42.584 27.5237 42.584 26.7315C42.584 25.9493 42.7298 25.2599 43.0215 24.6634C43.3165 24.0668 43.7275 23.6011 44.2544 23.2663C44.7847 22.9316 45.4045 22.7642 46.1138 22.7642C46.5447 22.7642 46.9623 22.8355 47.3667 22.978C47.771 23.1205 48.1339 23.3442 48.4554 23.6491C48.7769 23.9541 49.0305 24.3501 49.2161 24.8374C49.4017 25.3213 49.4945 25.9096 49.4945 26.6023V27.1293H43.4242V26.0156H48.0378C48.0378 25.6245 47.9583 25.2782 47.7992 24.9766C47.6401 24.6716 47.4164 24.4313 47.128 24.2557C46.843 24.08 46.5082 23.9922 46.1238 23.9922C45.7061 23.9922 45.3416 24.0949 45.03 24.3004C44.7218 24.5026 44.4831 24.7678 44.3141 25.0959C44.1484 25.4207 44.0655 25.7737 44.0655 26.1548V27.0249C44.0655 27.5353 44.155 27.9695 44.334 28.3274C44.5163 28.6854 44.7698 28.9588 45.0946 29.1477C45.4194 29.3333 45.7989 29.4261 46.2331 29.4261C46.5149 29.4261 46.7717 29.3864 47.0037 29.3068C47.2357 29.224 47.4363 29.1013 47.6053 28.9389C47.7743 28.7765 47.9036 28.576 47.9931 28.3374L49.4 28.5909C49.2873 29.0052 49.0852 29.3681 48.7935 29.6797C48.5051 29.9879 48.1422 30.2282 47.7047 30.4006C47.2705 30.5696 46.775 30.6541 46.2182 30.6541ZM53.3661 30.669C52.8822 30.669 52.4447 30.5795 52.0536 30.4006C51.6625 30.2183 51.3526 29.9548 51.1239 29.6101C50.8986 29.2654 50.7859 28.8428 50.7859 28.3423C50.7859 27.9115 50.8687 27.5568 51.0344 27.2784C51.2002 27 51.4239 26.7796 51.7056 26.6172C51.9873 26.4548 52.3022 26.3321 52.6502 26.2493C52.9982 26.1664 53.3529 26.1035 53.7141 26.0604C54.1715 26.0073 54.5427 25.9643 54.8278 25.9311C55.1128 25.8946 55.32 25.8366 55.4492 25.7571C55.5785 25.6776 55.6431 25.5483 55.6431 25.3693V25.3345C55.6431 24.9003 55.5205 24.5639 55.2752 24.3253C55.0333 24.0866 54.672 23.9673 54.1914 23.9673C53.6909 23.9673 53.2965 24.0784 53.0082 24.3004C52.7231 24.5192 52.5259 24.7628 52.4165 25.0312L51.0195 24.7131C51.1853 24.2491 51.4272 23.8745 51.7454 23.5895C52.0669 23.3011 52.4364 23.0923 52.854 22.9631C53.2717 22.8305 53.7108 22.7642 54.1715 22.7642C54.4764 22.7642 54.7996 22.8007 55.141 22.8736C55.4857 22.9432 55.8072 23.0724 56.1055 23.2614C56.4071 23.4503 56.654 23.7204 56.8462 24.0717C57.0385 24.4197 57.1346 24.8722 57.1346 25.429V30.5H55.6829V29.456H55.6232C55.5271 29.6482 55.3829 29.8371 55.1907 30.0227C54.9985 30.2083 54.7515 30.3625 54.4499 30.4851C54.1483 30.6077 53.7871 30.669 53.3661 30.669ZM53.6893 29.4759C54.1003 29.4759 54.4516 29.3946 54.7433 29.2322C55.0382 29.0698 55.262 28.8577 55.4144 28.5959C55.5702 28.3307 55.6481 28.0473 55.6481 27.7457V26.7614C55.5951 26.8144 55.4923 26.8641 55.3398 26.9105C55.1907 26.9536 55.02 26.9917 54.8278 27.0249C54.6355 27.0547 54.4483 27.0829 54.266 27.1094C54.0837 27.1326 53.9312 27.1525 53.8086 27.169C53.5202 27.2055 53.2567 27.2668 53.0181 27.353C52.7828 27.4392 52.5939 27.5634 52.4513 27.7259C52.3121 27.8849 52.2425 28.0971 52.2425 28.3622C52.2425 28.7301 52.3784 29.0085 52.6502 29.1974C52.922 29.383 53.2683 29.4759 53.6893 29.4759ZM61.9732 30.6491C61.3567 30.6491 60.8065 30.4917 60.3226 30.1768C59.842 29.8587 59.4642 29.4062 59.1891 28.8196C58.9173 28.2296 58.7814 27.522 58.7814 26.6967C58.7814 25.8714 58.919 25.1655 59.1941 24.5788C59.4725 23.9922 59.8536 23.5431 60.3375 23.2315C60.8214 22.92 61.37 22.7642 61.9831 22.7642C62.4571 22.7642 62.8382 22.8438 63.1266 23.0028C63.4183 23.1586 63.6436 23.3409 63.8027 23.5497C63.9651 23.7585 64.0911 23.9425 64.1806 24.1016H64.2701V20.3182H65.7566V30.5H64.3049V29.3118H64.1806C64.0911 29.4742 63.9618 29.6598 63.7928 29.8686C63.6271 30.0774 63.3984 30.2597 63.1067 30.4155C62.815 30.5713 62.4372 30.6491 61.9732 30.6491ZM62.3013 29.3814C62.7289 29.3814 63.0901 29.2687 63.3851 29.0433C63.6834 28.8146 63.9088 28.4981 64.0613 28.0938C64.217 27.6894 64.2949 27.2187 64.2949 26.6818C64.2949 26.1515 64.2187 25.6875 64.0662 25.2898C63.9138 24.892 63.69 24.5821 63.3951 24.3601C63.1001 24.138 62.7355 24.027 62.3013 24.027C61.8539 24.027 61.481 24.143 61.1827 24.375C60.8844 24.607 60.659 24.9235 60.5066 25.3246C60.3574 25.7256 60.2828 26.178 60.2828 26.6818C60.2828 27.1922 60.3591 27.6513 60.5115 28.0589C60.664 28.4666 60.8894 28.7898 61.1877 29.0284C61.4893 29.2637 61.8605 29.3814 62.3013 29.3814ZM71.7026 20.3182H73.5669L76.8084 28.233H76.9277L80.1692 20.3182H82.0336V30.5H80.5719V23.1321H80.4775L77.4746 30.4851H76.2615L73.2587 23.1271H73.1642V30.5H71.7026V20.3182ZM87.3643 30.6541C86.6484 30.6541 86.0237 30.4901 85.4901 30.1619C84.9564 29.8338 84.5421 29.3748 84.2472 28.7848C83.9522 28.1948 83.8047 27.5054 83.8047 26.7166C83.8047 25.9245 83.9522 25.2318 84.2472 24.6385C84.5421 24.0452 84.9564 23.5845 85.4901 23.2564C86.0237 22.9283 86.6484 22.7642 87.3643 22.7642C88.0803 22.7642 88.705 22.9283 89.2386 23.2564C89.7723 23.5845 90.1866 24.0452 90.4815 24.6385C90.7765 25.2318 90.924 25.9245 90.924 26.7166C90.924 27.5054 90.7765 28.1948 90.4815 28.7848C90.1866 29.3748 89.7723 29.8338 89.2386 30.1619C88.705 30.4901 88.0803 30.6541 87.3643 30.6541ZM87.3693 29.4062C87.8333 29.4062 88.2178 29.2836 88.5227 29.0384C88.8277 28.7931 89.053 28.4666 89.1989 28.0589C89.348 27.6513 89.4226 27.2022 89.4226 26.7116C89.4226 26.2244 89.348 25.777 89.1989 25.3693C89.053 24.9583 88.8277 24.6286 88.5227 24.38C88.2178 24.1314 87.8333 24.0071 87.3693 24.0071C86.902 24.0071 86.5142 24.1314 86.206 24.38C85.901 24.6286 85.674 24.9583 85.5249 25.3693C85.379 25.777 85.3061 26.2244 85.3061 26.7116C85.3061 27.2022 85.379 27.6513 85.5249 28.0589C85.674 28.4666 85.901 28.7931 86.206 29.0384C86.5142 29.2836 86.902 29.4062 87.3693 29.4062ZM92.5833 30.5V22.8636H94.0201V24.0767H94.0996C94.2388 23.6657 94.4841 23.3426 94.8354 23.1072C95.19 22.8686 95.5911 22.7493 96.0385 22.7493C96.1313 22.7493 96.2407 22.7526 96.3667 22.7592C96.4959 22.7659 96.597 22.7741 96.6699 22.7841V24.206C96.6103 24.1894 96.5042 24.1712 96.3517 24.1513C96.1993 24.1281 96.0468 24.1165 95.8944 24.1165C95.543 24.1165 95.2298 24.1911 94.9547 24.3402C94.6829 24.486 94.4675 24.6899 94.3084 24.9517C94.1493 25.2102 94.0698 25.5052 94.0698 25.8366V30.5H92.5833ZM100.974 30.6541C100.222 30.6541 99.5737 30.4934 99.0302 30.1719C98.4899 29.8471 98.0723 29.3913 97.7773 28.8047C97.4857 28.2147 97.3398 27.5237 97.3398 26.7315C97.3398 25.9493 97.4857 25.2599 97.7773 24.6634C98.0723 24.0668 98.4833 23.6011 99.0103 23.2663C99.5406 22.9316 100.16 22.7642 100.87 22.7642C101.301 22.7642 101.718 22.8355 102.123 22.978C102.527 23.1205 102.89 23.3442 103.211 23.6491C103.533 23.9541 103.786 24.3501 103.972 24.8374C104.158 25.3213 104.25 25.9096 104.25 26.6023V27.1293H98.18V26.0156H102.794C102.794 25.6245 102.714 25.2782 102.555 24.9766C102.396 24.6716 102.172 24.4313 101.884 24.2557C101.599 24.08 101.264 23.9922 100.88 23.9922C100.462 23.9922 100.097 24.0949 99.7859 24.3004C99.4776 24.5026 99.239 24.7678 99.07 25.0959C98.9042 25.4207 98.8214 25.7737 98.8214 26.1548V27.0249C98.8214 27.5353 98.9109 27.9695 99.0898 28.3274C99.2721 28.6854 99.5257 28.9588 99.8505 29.1477C100.175 29.3333 100.555 29.4261 100.989 29.4261C101.271 29.4261 101.528 29.3864 101.76 29.3068C101.992 29.224 102.192 29.1013 102.361 28.9389C102.53 28.7765 102.659 28.576 102.749 28.3374L104.156 28.5909C104.043 29.0052 103.841 29.3681 103.549 29.6797C103.261 29.9879 102.898 30.2282 102.461 30.4006C102.026 30.5696 101.531 30.6541 100.974 30.6541Z" fill="#F0E714"/>
<path fill-rule="evenodd" clip-rule="evenodd" d="M111 25.5C111 25.3527 111.056 25.2114 111.157 25.1072C111.257 25.003 111.394 24.9445 111.536 24.9445H124.17L120.799 21.4495C120.698 21.3452 120.642 21.2037 120.642 21.0562C120.642 20.9087 120.698 20.7672 120.799 20.6629C120.899 20.5586 121.036 20.5 121.178 20.5C121.32 20.5 121.457 20.5586 121.557 20.6629L125.843 25.1067C125.893 25.1583 125.932 25.2196 125.959 25.2871C125.986 25.3546 126 25.4269 126 25.5C126 25.5731 125.986 25.6454 125.959 25.7129C125.932 25.7804 125.893 25.8417 125.843 25.8933L121.557 30.3371C121.457 30.4414 121.32 30.5 121.178 30.5C121.036 30.5 120.899 30.4414 120.799 30.3371C120.698 30.2328 120.642 30.0913 120.642 29.9438C120.642 29.7963 120.698 29.6548 120.799 29.5505L124.17 26.0555H111.536C111.394 26.0555 111.257 25.997 111.157 25.8928C111.056 25.7886 111 25.6473 111 25.5Z" fill="#F0E714"/>
</svg>
