<svg width="197" height="60" viewBox="0 0 197 60" fill="none" xmlns="http://www.w3.org/2000/svg">
<rect width="197" height="60" rx="30" fill="#F0E714"/>
<path d="M48.528 25.52C47.68 23.472 45.392 21.936 42.848 21.936C39.408 21.936 36.608 24.512 36.608 28.048C36.608 31.52 39.328 34.224 42.832 34.224C45.072 34.224 47.52 33.04 48.608 30.688C49.008 29.808 49.136 28.784 49.136 28.032H41.84V29.568H46.944C46.768 30.384 46.272 31.136 45.552 31.68C44.848 32.224 43.904 32.56 42.816 32.56C40.592 32.56 38.48 30.896 38.48 28.048C38.48 25.296 40.576 23.6 42.816 23.6C43.792 23.6 44.624 23.904 45.312 24.4C45.728 24.704 46.096 25.088 46.4 25.52H48.528ZM59.2563 30.176C59.4003 28.72 58.9683 27.36 57.9443 26.32C57.1123 25.504 55.9763 25.04 54.7283 25.04C52.0883 25.04 50.1363 27.168 50.1363 29.664C50.1363 31.968 51.8963 34.256 54.7443 34.256C55.6243 34.256 56.4883 34.016 57.2243 33.52C57.9603 33.04 58.5683 32.32 58.9843 31.36H57.2563C56.7763 32.272 55.9123 32.832 54.7443 32.832C53.4323 32.832 51.8963 31.936 51.8163 30.176H59.2563ZM51.8483 28.88C51.9283 27.696 53.0323 26.464 54.7283 26.464C56.3763 26.432 57.5283 27.728 57.6083 28.88H51.8483ZM61.5089 34H63.1729V26.592H64.8529V25.296H63.1729V22.16H61.5089V25.296H59.9409V26.592H61.5089V34ZM70.2784 30.496C70.3104 32.784 71.8144 34.224 74.1664 34.224C76.6944 34.224 77.9904 32.56 77.9904 30.64C77.9904 28.72 76.6144 27.968 75.1424 27.344C73.2384 26.64 72.3584 26.352 72.3584 25.2C72.3584 24.192 73.1904 23.536 74.1504 23.536C75.5104 23.536 75.7984 24.56 75.9264 25.2H77.7824C77.6384 22.768 75.7344 21.936 74.2144 21.936C72.3584 21.936 70.4704 23.136 70.4864 25.344C70.4864 27.568 72.5504 28.256 73.4784 28.56C74.9984 29.12 76.1184 29.424 76.1184 30.736C76.1184 31.792 75.2064 32.624 74.1504 32.624C73.5264 32.624 72.2784 32.272 72.1504 30.496H70.2784ZM80.212 34H81.876V26.592H83.556V25.296H81.876V22.16H80.212V25.296H78.644V26.592H80.212V34ZM93.2333 25.296H91.5693V26.832C91.1693 26 90.0653 25.04 88.3373 25.04C85.8093 25.04 83.8733 26.992 83.8733 29.648C83.8733 32.08 85.5373 34.256 88.3373 34.256C89.7133 34.256 90.9613 33.648 91.5693 32.48V34H93.2333V25.296ZM85.5373 29.664C85.5373 28.032 86.7213 26.592 88.5453 26.592C89.9373 26.592 90.9133 27.376 91.3293 28.384C91.5213 28.784 91.6013 29.232 91.5853 29.68C91.5693 30.128 91.4733 30.576 91.2812 30.976C90.8493 31.968 89.9053 32.704 88.5773 32.704C86.4653 32.704 85.5533 30.976 85.5373 29.68V29.664ZM95.4318 34H97.0958V29.296C97.0958 27.568 97.9118 26.704 99.4798 26.704H99.5918V25.04C98.4078 25.056 97.4958 25.552 96.9998 26.576V25.296H95.4318V34ZM101.821 34H103.485V26.592H105.165V25.296H103.485V22.16H101.821V25.296H100.253V26.592H101.821V34ZM114.491 30.176C114.635 28.72 114.203 27.36 113.179 26.32C112.347 25.504 111.211 25.04 109.963 25.04C107.323 25.04 105.371 27.168 105.371 29.664C105.371 31.968 107.131 34.256 109.979 34.256C110.859 34.256 111.723 34.016 112.459 33.52C113.195 33.04 113.803 32.32 114.219 31.36H112.491C112.011 32.272 111.147 32.832 109.979 32.832C108.667 32.832 107.131 31.936 107.051 30.176H114.491ZM107.083 28.88C107.163 27.696 108.267 26.464 109.963 26.464C111.611 26.432 112.763 27.728 112.843 28.88H107.083ZM124.935 22.16H123.271V25.184V26.72C122.919 26.032 121.831 25.04 120.055 25.04C117.575 25.04 115.623 26.928 115.623 29.632C115.623 32.144 117.351 34.256 120.087 34.256C121.879 34.256 122.855 33.376 123.335 32.48V34H124.935V22.16ZM117.287 29.632C117.287 28 118.503 26.592 120.343 26.592C121.191 26.592 121.943 26.912 122.487 27.456C123.031 27.984 123.367 28.736 123.367 29.6C123.399 30.464 123.079 31.232 122.519 31.792C121.975 32.352 121.191 32.704 120.343 32.704C118.423 32.704 117.303 31.248 117.287 29.648V29.632Z" fill="#24272E"/>
<path fill-rule="evenodd" clip-rule="evenodd" d="M137 30C137 29.7727 137.09 29.5547 137.251 29.394C137.412 29.2332 137.63 29.1429 137.857 29.1429H158.072L152.678 23.7501C152.517 23.5892 152.427 23.3709 152.427 23.1433C152.427 22.9157 152.517 22.6974 152.678 22.5365C152.839 22.3756 153.057 22.2852 153.285 22.2852C153.512 22.2852 153.731 22.3756 153.891 22.5365L160.748 29.3932C160.828 29.4728 160.891 29.5674 160.935 29.6715C160.978 29.7757 161 29.8873 161 30C161 30.1128 160.978 30.2244 160.935 30.3285C160.891 30.4327 160.828 30.5272 160.748 30.6068L153.891 37.4636C153.731 37.6245 153.512 37.7149 153.285 37.7149C153.057 37.7149 152.839 37.6245 152.678 37.4636C152.517 37.3026 152.427 37.0843 152.427 36.8567C152.427 36.6291 152.517 36.4109 152.678 36.2499L158.072 30.8571H137.857C137.63 30.8571 137.412 30.7668 137.251 30.6061C137.09 30.4453 137 30.2273 137 30Z" fill="#24272E"/>
</svg>
