<svg width="271" height="51" viewBox="0 0 271 51" fill="none" xmlns="http://www.w3.org/2000/svg">
<path d="M32.544 25.996C32.576 28.284 34.08 29.724 36.432 29.724C38.96 29.724 40.256 28.06 40.256 26.14C40.256 24.22 38.88 23.468 37.408 22.844C35.504 22.14 34.624 21.852 34.624 20.7C34.624 19.692 35.456 19.036 36.416 19.036C37.776 19.036 38.064 20.06 38.192 20.7H40.048C39.904 18.268 38 17.436 36.48 17.436C34.624 17.436 32.736 18.636 32.752 20.844C32.752 23.068 34.816 23.756 35.744 24.06C37.264 24.62 38.384 24.924 38.384 26.236C38.384 27.292 37.472 28.124 36.416 28.124C35.792 28.124 34.544 27.772 34.416 25.996H32.544ZM41.8536 19.42H43.5176V17.66H41.8536V19.42ZM41.8536 29.5H43.5176V20.796H41.8536V29.5ZM54.4974 20.796H52.8334V22.268C52.3534 21.308 51.1534 20.54 49.6974 20.54C47.1694 20.54 45.2014 22.46 45.2014 25.18C45.2014 27.772 47.0894 29.756 49.6974 29.756C51.2654 29.756 52.3214 28.94 52.8334 27.964V28.86C52.8334 30.812 51.3294 31.884 49.8734 31.884C49.4894 31.884 48.8974 31.772 48.3694 31.42C47.9374 31.148 47.6014 30.796 47.4094 30.412H45.4894C45.9054 31.868 47.3454 33.308 49.8094 33.308C51.3134 33.308 52.6734 32.652 53.4734 31.724C54.1134 30.988 54.4974 30.012 54.4974 28.492V20.796ZM46.8654 25.132C46.8654 23.34 48.2254 22.108 49.8734 22.108C50.9294 22.108 51.6814 22.524 52.1614 23.132C52.6414 23.724 52.8654 24.508 52.8654 25.196C52.8494 26.044 52.5294 26.796 52.0174 27.324C51.4894 27.868 50.7534 28.204 49.8734 28.204C48.0334 28.204 46.8654 26.78 46.8654 25.148V25.132ZM56.6505 29.5H58.3145V24.652C58.3145 23.148 59.0665 22.124 60.6985 22.108C62.3945 22.092 63.0025 23.212 63.0025 24.78V29.5H64.6825V24.396C64.6825 22.588 63.9465 20.572 61.1625 20.54C59.6105 20.524 58.6345 21.244 58.2185 22.14V20.796H56.6505V29.5ZM71.5411 19.42H73.2051V17.66H71.5411V19.42ZM71.5411 29.5H73.2051V20.796H71.5411V29.5ZM75.3849 29.5H77.0489V24.652C77.0489 23.148 77.8009 22.124 79.4329 22.108C81.1289 22.092 81.7369 23.212 81.7369 24.78V29.5H83.4169V24.396C83.4169 22.588 82.6809 20.572 79.8969 20.54C78.3449 20.524 77.3689 21.244 76.9529 22.14V20.796H75.3849V29.5Z" fill="#CECECE"/>
<rect x="0.5" y="1" width="116" height="49" rx="24.5" stroke="#CECECE"/>
<rect x="133" y="0.5" width="138" height="50" rx="25" fill="#F0E714"/>
<path d="M172.544 25.996C172.576 28.284 174.08 29.724 176.432 29.724C178.96 29.724 180.256 28.06 180.256 26.14C180.256 24.22 178.88 23.468 177.408 22.844C175.504 22.14 174.624 21.852 174.624 20.7C174.624 19.692 175.456 19.036 176.416 19.036C177.776 19.036 178.064 20.06 178.192 20.7H180.048C179.904 18.268 178 17.436 176.48 17.436C174.624 17.436 172.736 18.636 172.752 20.844C172.752 23.068 174.816 23.756 175.744 24.06C177.264 24.62 178.384 24.924 178.384 26.236C178.384 27.292 177.472 28.124 176.416 28.124C175.792 28.124 174.544 27.772 174.416 25.996H172.544ZM181.854 19.42H183.518V17.66H181.854V19.42ZM181.854 29.5H183.518V20.796H181.854V29.5ZM194.497 20.796H192.833V22.268C192.353 21.308 191.153 20.54 189.697 20.54C187.169 20.54 185.201 22.46 185.201 25.18C185.201 27.772 187.089 29.756 189.697 29.756C191.265 29.756 192.321 28.94 192.833 27.964V28.86C192.833 30.812 191.329 31.884 189.873 31.884C189.489 31.884 188.897 31.772 188.369 31.42C187.937 31.148 187.601 30.796 187.409 30.412H185.489C185.905 31.868 187.345 33.308 189.809 33.308C191.313 33.308 192.673 32.652 193.473 31.724C194.113 30.988 194.497 30.012 194.497 28.492V20.796ZM186.865 25.132C186.865 23.34 188.225 22.108 189.873 22.108C190.929 22.108 191.681 22.524 192.161 23.132C192.641 23.724 192.865 24.508 192.865 25.196C192.849 26.044 192.529 26.796 192.017 27.324C191.489 27.868 190.753 28.204 189.873 28.204C188.033 28.204 186.865 26.78 186.865 25.148V25.132ZM196.651 29.5H198.315V24.652C198.315 23.148 199.067 22.124 200.699 22.108C202.395 22.092 203.003 23.212 203.003 24.78V29.5H204.683V24.396C204.683 22.588 203.947 20.572 201.163 20.54C199.611 20.524 198.635 21.244 198.219 22.14V20.796H196.651V29.5ZM219.557 20.796H217.893V25.66C217.893 27.148 217.141 28.188 215.509 28.204C213.797 28.204 213.189 27.084 213.189 25.516V20.796H211.525V25.9C211.525 27.708 212.245 29.74 215.045 29.756C216.597 29.772 217.573 29.052 217.989 28.156V29.5H219.557V20.796ZM221.729 32.668H223.393V29.5V28.06C223.777 28.764 224.849 29.756 226.657 29.756C229.265 29.756 231.041 27.66 231.041 25.196C231.041 23.036 229.633 20.54 226.641 20.54C225.089 20.54 223.969 21.276 223.313 22.316V20.796H221.729V32.668ZM229.361 25.148C229.361 26.844 228.097 28.204 226.337 28.204C225.489 28.204 224.721 27.868 224.177 27.324C223.633 26.78 223.313 26.028 223.313 25.164C223.313 24.3 223.633 23.532 224.161 22.988C224.705 22.428 225.457 22.092 226.321 22.092C228.353 22.092 229.361 23.708 229.361 25.132V25.148Z" fill="#101C26"/>
</svg>
