<svg width="142" height="30" viewBox="0 0 142 30" fill="none" xmlns="http://www.w3.org/2000/svg">
<rect width="30" height="30" rx="15" fill="white"/>
<path d="M19.75 13.701C20.75 14.2783 20.75 15.7217 19.75 16.299L13.75 19.7631C12.75 20.3405 11.5 19.6188 11.5 18.4641L11.5 11.5359C11.5 10.3812 12.75 9.65951 13.75 10.2369L19.75 13.701Z" fill="#2B303B"/>
<path d="M45.024 21V15.816H50.128V21H52.016V9.16H50.128V14.152H45.024V9.16H43.136V21H45.024ZM53.7639 16.648C53.7639 18.984 55.4759 21.24 58.4039 21.24C61.3319 21.24 63.0439 18.984 63.0439 16.648C63.0439 14.312 61.3319 12.04 58.4039 12.04C55.4759 12.04 53.7639 14.312 53.7639 16.632V16.648ZM55.4279 16.648C55.4279 14.904 56.7399 13.608 58.4039 13.608C60.0679 13.608 61.3799 14.904 61.3799 16.648C61.3799 18.392 60.0679 19.688 58.4039 19.688C56.7399 19.688 55.4279 18.392 55.4279 16.664V16.648ZM66.3213 21H67.9053L69.7293 14.904L71.6013 21H73.1853L76.0813 12.296H74.3533L72.3373 18.872L70.4493 12.808H69.0573L67.2013 18.872L65.1533 12.296H63.4093L66.3213 21ZM82.0255 10.92H83.6895V9.16H82.0255V10.92ZM82.0255 21H83.6895V12.296H82.0255V21ZM86.4933 21H88.1573V13.592H89.8373V12.296H88.1573V9.16H86.4933V12.296H84.9253V13.592H86.4933V21ZM97.7588 21H99.3428L101.167 14.904L103.039 21H104.623L107.519 12.296H105.791L103.775 18.872L101.887 12.808H100.495L98.6388 18.872L96.5908 12.296H94.8468L97.7588 21ZM107.873 16.648C107.873 18.984 109.585 21.24 112.513 21.24C115.441 21.24 117.153 18.984 117.153 16.648C117.153 14.312 115.441 12.04 112.513 12.04C109.585 12.04 107.873 14.312 107.873 16.632V16.648ZM109.537 16.648C109.537 14.904 110.849 13.608 112.513 13.608C114.177 13.608 115.489 14.904 115.489 16.648C115.489 18.392 114.177 19.688 112.513 19.688C110.849 19.688 109.537 18.392 109.537 16.664V16.648ZM118.854 21H120.518V16.296C120.518 14.568 121.334 13.704 122.902 13.704H123.014V12.04C121.83 12.056 120.918 12.552 120.422 13.576V12.296H118.854V21ZM124.37 21H126.05V16.52L129.65 21H131.586L127.602 16.12L131.474 12.296H129.458L126.05 15.736V9.16H124.37V21ZM138.373 14.568C138.245 12.632 136.677 12.04 135.477 12.04C133.893 12.04 132.549 13.032 132.549 14.68C132.565 15.992 133.525 16.568 134.741 16.936C136.293 17.448 136.949 17.736 136.965 18.6C136.965 19.336 136.341 19.896 135.541 19.896C134.917 19.896 134.069 19.544 134.005 18.488H132.357C132.437 20.472 134.149 21.256 135.525 21.256C137.253 21.256 138.661 20.104 138.629 18.408C138.581 16.536 137.125 16.152 135.797 15.784C134.869 15.528 134.245 15.208 134.213 14.52C134.197 13.944 134.645 13.4 135.461 13.4C136.309 13.384 136.725 13.896 136.725 14.568H138.373Z" fill="white"/>
</svg>
